<mxfile host="65bd71144e" pages="2">
    <diagram id="UucxZxH3Ea_Y8RGhOy_d" name="pagination">
        <mxGraphModel dx="649" dy="739" grid="1" gridSize="10" guides="1" tooltips="1" connect="1" arrows="1" fold="1" page="1" pageScale="1" pageWidth="2336" pageHeight="1654" math="0" shadow="0">
            <root>
                <mxCell id="0"/>
                <mxCell id="1" parent="0"/>
            </root>
        </mxGraphModel>
    </diagram>
    <diagram id="v-QHTEBgziGs_LUOAG5W" name="Service insertion">
        <mxGraphModel dx="927" dy="1056" grid="1" gridSize="10" guides="1" tooltips="1" connect="1" arrows="1" fold="1" page="1" pageScale="1" pageWidth="2336" pageHeight="1654" math="0" shadow="0">
            <root>
                <mxCell id="0"/>
                <mxCell id="1" parent="0"/>
                <mxCell id="4" value="" style="rounded=0;whiteSpace=wrap;html=1;strokeWidth=1;fillColor=#FFFFFF;strokeColor=none;" vertex="1" parent="1">
                    <mxGeometry x="185" y="230" width="570" height="850" as="geometry"/>
                </mxCell>
                <mxCell id="UchIWn36UsaO8wJyYPSa-34" value="" style="endArrow=classic;html=1;rounded=0;edgeStyle=orthogonalEdgeStyle;fontColor=#000000;labelBackgroundColor=#FFFFFF;strokeColor=#000000;" parent="1" source="UchIWn36UsaO8wJyYPSa-29" target="UchIWn36UsaO8wJyYPSa-37" edge="1">
                    <mxGeometry width="50" height="50" relative="1" as="geometry">
                        <mxPoint x="440" y="880" as="sourcePoint"/>
                        <mxPoint x="240" y="1000" as="targetPoint"/>
                        <Array as="points">
                            <mxPoint x="250" y="1030"/>
                        </Array>
                    </mxGeometry>
                </mxCell>
                <mxCell id="UchIWn36UsaO8wJyYPSa-35" value="yes" style="edgeLabel;html=1;align=center;verticalAlign=middle;resizable=0;points=[];fontColor=#000000;labelBackgroundColor=#FFFFFF;" parent="UchIWn36UsaO8wJyYPSa-34" vertex="1" connectable="0">
                    <mxGeometry x="-0.0762" y="1" relative="1" as="geometry">
                        <mxPoint x="58" y="-1" as="offset"/>
                    </mxGeometry>
                </mxCell>
                <mxCell id="UchIWn36UsaO8wJyYPSa-1" value="Action" style="ellipse;whiteSpace=wrap;html=1;aspect=fixed;fontColor=#000000;labelBackgroundColor=#FFFFFF;strokeColor=#000000;fillColor=#FFFFFF;" parent="1" vertex="1">
                    <mxGeometry x="370" y="250" width="80" height="80" as="geometry"/>
                </mxCell>
                <mxCell id="UchIWn36UsaO8wJyYPSa-2" value="Is it post mode ?" style="rhombus;whiteSpace=wrap;html=1;fontColor=#000000;labelBackgroundColor=#FFFFFF;strokeColor=#000000;fillColor=#FFFFFF;" parent="1" vertex="1">
                    <mxGeometry x="550" y="510" width="80" height="80" as="geometry"/>
                </mxCell>
                <mxCell id="UchIWn36UsaO8wJyYPSa-3" value="" style="endArrow=classic;html=1;rounded=0;edgeStyle=orthogonalEdgeStyle;fontColor=#000000;labelBackgroundColor=#FFFFFF;strokeColor=#000000;" parent="1" source="UchIWn36UsaO8wJyYPSa-1" target="UchIWn36UsaO8wJyYPSa-5" edge="1">
                    <mxGeometry width="50" height="50" relative="1" as="geometry">
                        <mxPoint x="450" y="650" as="sourcePoint"/>
                        <mxPoint x="500" y="380" as="targetPoint"/>
                    </mxGeometry>
                </mxCell>
                <mxCell id="UchIWn36UsaO8wJyYPSa-5" value="Is it an UPDATE query ?" style="rhombus;whiteSpace=wrap;html=1;fontColor=#000000;labelBackgroundColor=#FFFFFF;strokeColor=#000000;fillColor=#FFFFFF;" parent="1" vertex="1">
                    <mxGeometry x="370" y="400" width="80" height="80" as="geometry"/>
                </mxCell>
                <mxCell id="UchIWn36UsaO8wJyYPSa-7" value="" style="endArrow=classic;html=1;rounded=0;edgeStyle=orthogonalEdgeStyle;fontColor=#000000;labelBackgroundColor=#FFFFFF;strokeColor=#000000;" parent="1" source="UchIWn36UsaO8wJyYPSa-5" target="UchIWn36UsaO8wJyYPSa-15" edge="1">
                    <mxGeometry width="50" height="50" relative="1" as="geometry">
                        <mxPoint x="380" y="460" as="sourcePoint"/>
                        <mxPoint x="370" y="560" as="targetPoint"/>
                    </mxGeometry>
                </mxCell>
                <mxCell id="UchIWn36UsaO8wJyYPSa-8" value="yes" style="edgeLabel;html=1;align=center;verticalAlign=middle;resizable=0;points=[];fontColor=#000000;labelBackgroundColor=#FFFFFF;" parent="UchIWn36UsaO8wJyYPSa-7" vertex="1" connectable="0">
                    <mxGeometry x="-0.0762" y="1" relative="1" as="geometry">
                        <mxPoint x="-1" y="-25" as="offset"/>
                    </mxGeometry>
                </mxCell>
                <mxCell id="UchIWn36UsaO8wJyYPSa-10" value="" style="endArrow=classic;html=1;rounded=0;edgeStyle=orthogonalEdgeStyle;fontColor=#000000;labelBackgroundColor=#FFFFFF;strokeColor=#000000;" parent="1" source="UchIWn36UsaO8wJyYPSa-5" target="UchIWn36UsaO8wJyYPSa-2" edge="1">
                    <mxGeometry width="50" height="50" relative="1" as="geometry">
                        <mxPoint x="740" y="390" as="sourcePoint"/>
                        <mxPoint x="650" y="490" as="targetPoint"/>
                    </mxGeometry>
                </mxCell>
                <mxCell id="UchIWn36UsaO8wJyYPSa-11" value="no" style="edgeLabel;html=1;align=center;verticalAlign=middle;resizable=0;points=[];fontColor=#000000;labelBackgroundColor=#FFFFFF;" parent="UchIWn36UsaO8wJyYPSa-10" vertex="1" connectable="0">
                    <mxGeometry x="-0.0762" y="1" relative="1" as="geometry">
                        <mxPoint as="offset"/>
                    </mxGeometry>
                </mxCell>
                <mxCell id="UchIWn36UsaO8wJyYPSa-12" value="Is it a CONSTRUCT query ?" style="rhombus;whiteSpace=wrap;html=1;fontColor=#000000;labelBackgroundColor=#FFFFFF;strokeColor=#000000;fillColor=#FFFFFF;" parent="1" vertex="1">
                    <mxGeometry x="550" y="690" width="80" height="80" as="geometry"/>
                </mxCell>
                <mxCell id="UchIWn36UsaO8wJyYPSa-13" value="" style="endArrow=classic;html=1;rounded=0;edgeStyle=orthogonalEdgeStyle;fontColor=#000000;labelBackgroundColor=#FFFFFF;strokeColor=#000000;" parent="1" source="UchIWn36UsaO8wJyYPSa-2" target="UchIWn36UsaO8wJyYPSa-12" edge="1">
                    <mxGeometry width="50" height="50" relative="1" as="geometry">
                        <mxPoint x="590" y="600" as="sourcePoint"/>
                        <mxPoint x="600" y="530" as="targetPoint"/>
                    </mxGeometry>
                </mxCell>
                <mxCell id="UchIWn36UsaO8wJyYPSa-14" value="no" style="edgeLabel;html=1;align=center;verticalAlign=middle;resizable=0;points=[];fontColor=#000000;labelBackgroundColor=#FFFFFF;" parent="UchIWn36UsaO8wJyYPSa-13" vertex="1" connectable="0">
                    <mxGeometry x="-0.0762" y="1" relative="1" as="geometry">
                        <mxPoint as="offset"/>
                    </mxGeometry>
                </mxCell>
                <mxCell id="UchIWn36UsaO8wJyYPSa-15" value="Send to corese server" style="rounded=0;whiteSpace=wrap;html=1;strokeWidth=3;fontColor=#000000;labelBackgroundColor=#FFFFFF;strokeColor=#000000;fillColor=#FFFFFF;" parent="1" vertex="1">
                    <mxGeometry x="360" y="620" width="100" height="40" as="geometry"/>
                </mxCell>
                <mxCell id="UchIWn36UsaO8wJyYPSa-19" value="" style="endArrow=classic;html=1;rounded=0;edgeStyle=orthogonalEdgeStyle;fontColor=#000000;labelBackgroundColor=#FFFFFF;strokeColor=#000000;" parent="1" source="UchIWn36UsaO8wJyYPSa-2" target="UchIWn36UsaO8wJyYPSa-15" edge="1">
                    <mxGeometry width="50" height="50" relative="1" as="geometry">
                        <mxPoint x="420" y="490" as="sourcePoint"/>
                        <mxPoint x="420" y="630" as="targetPoint"/>
                        <Array as="points">
                            <mxPoint x="410" y="550"/>
                        </Array>
                    </mxGeometry>
                </mxCell>
                <mxCell id="UchIWn36UsaO8wJyYPSa-20" value="yes" style="edgeLabel;html=1;align=center;verticalAlign=middle;resizable=0;points=[];fontColor=#000000;labelBackgroundColor=#FFFFFF;" parent="UchIWn36UsaO8wJyYPSa-19" vertex="1" connectable="0">
                    <mxGeometry x="-0.0762" y="1" relative="1" as="geometry">
                        <mxPoint x="47" y="-1" as="offset"/>
                    </mxGeometry>
                </mxCell>
                <mxCell id="UchIWn36UsaO8wJyYPSa-21" value="Error" style="rounded=0;whiteSpace=wrap;html=1;strokeWidth=3;fontColor=#000000;labelBackgroundColor=#FFFFFF;strokeColor=#000000;fillColor=#FFFFFF;" parent="1" vertex="1">
                    <mxGeometry x="640" y="850" width="100" height="40" as="geometry"/>
                </mxCell>
                <mxCell id="UchIWn36UsaO8wJyYPSa-22" value="" style="endArrow=classic;html=1;rounded=0;edgeStyle=orthogonalEdgeStyle;fontColor=#000000;labelBackgroundColor=#FFFFFF;strokeColor=#000000;" parent="1" source="UchIWn36UsaO8wJyYPSa-12" target="UchIWn36UsaO8wJyYPSa-24" edge="1">
                    <mxGeometry width="50" height="50" relative="1" as="geometry">
                        <mxPoint x="600" y="860" as="sourcePoint"/>
                        <mxPoint x="460" y="930" as="targetPoint"/>
                        <Array as="points">
                            <mxPoint x="490" y="730"/>
                            <mxPoint x="490" y="730"/>
                        </Array>
                    </mxGeometry>
                </mxCell>
                <mxCell id="UchIWn36UsaO8wJyYPSa-23" value="yes" style="edgeLabel;html=1;align=center;verticalAlign=middle;resizable=0;points=[];fontColor=#000000;labelBackgroundColor=#FFFFFF;" parent="UchIWn36UsaO8wJyYPSa-22" vertex="1" connectable="0">
                    <mxGeometry x="-0.0762" y="1" relative="1" as="geometry">
                        <mxPoint x="-1" y="17" as="offset"/>
                    </mxGeometry>
                </mxCell>
                <mxCell id="UchIWn36UsaO8wJyYPSa-24" value="&lt;span style=&quot;&quot;&gt;Does it contain a SERVICE clause ?&lt;/span&gt;" style="rhombus;whiteSpace=wrap;html=1;fontColor=#000000;labelBackgroundColor=#FFFFFF;strokeColor=#000000;fillColor=#FFFFFF;" parent="1" vertex="1">
                    <mxGeometry x="430" y="830" width="80" height="80" as="geometry"/>
                </mxCell>
                <mxCell id="UchIWn36UsaO8wJyYPSa-25" value="" style="endArrow=classic;html=1;rounded=0;edgeStyle=orthogonalEdgeStyle;fontColor=#000000;labelBackgroundColor=#FFFFFF;strokeColor=#000000;" parent="1" source="UchIWn36UsaO8wJyYPSa-12" target="UchIWn36UsaO8wJyYPSa-21" edge="1">
                    <mxGeometry width="50" height="50" relative="1" as="geometry">
                        <mxPoint x="600" y="600" as="sourcePoint"/>
                        <mxPoint x="600" y="700" as="targetPoint"/>
                    </mxGeometry>
                </mxCell>
                <mxCell id="UchIWn36UsaO8wJyYPSa-26" value="no" style="edgeLabel;html=1;align=center;verticalAlign=middle;resizable=0;points=[];fontColor=#000000;labelBackgroundColor=#FFFFFF;" parent="UchIWn36UsaO8wJyYPSa-25" vertex="1" connectable="0">
                    <mxGeometry x="-0.0762" y="1" relative="1" as="geometry">
                        <mxPoint as="offset"/>
                    </mxGeometry>
                </mxCell>
                <mxCell id="UchIWn36UsaO8wJyYPSa-27" value="" style="endArrow=classic;html=1;rounded=0;edgeStyle=orthogonalEdgeStyle;fontColor=#000000;labelBackgroundColor=#FFFFFF;strokeColor=#000000;" parent="1" source="UchIWn36UsaO8wJyYPSa-24" target="UchIWn36UsaO8wJyYPSa-15" edge="1">
                    <mxGeometry width="50" height="50" relative="1" as="geometry">
                        <mxPoint x="340" y="777" as="sourcePoint"/>
                        <mxPoint x="260" y="877" as="targetPoint"/>
                        <Array as="points">
                            <mxPoint x="410" y="870"/>
                        </Array>
                    </mxGeometry>
                </mxCell>
                <mxCell id="UchIWn36UsaO8wJyYPSa-28" value="yes" style="edgeLabel;html=1;align=center;verticalAlign=middle;resizable=0;points=[];labelBackgroundColor=#FFFFFF;fontColor=#000000;" parent="UchIWn36UsaO8wJyYPSa-27" vertex="1" connectable="0">
                    <mxGeometry x="-0.0762" y="1" relative="1" as="geometry">
                        <mxPoint x="-1" y="17" as="offset"/>
                    </mxGeometry>
                </mxCell>
                <mxCell id="UchIWn36UsaO8wJyYPSa-29" value="&lt;span style=&quot;&quot;&gt;is there an alternative endpoint given ?&lt;/span&gt;" style="rhombus;whiteSpace=wrap;html=1;fontColor=#000000;labelBackgroundColor=#FFFFFF;strokeColor=#000000;fillColor=#FFFFFF;" parent="1" vertex="1">
                    <mxGeometry x="430" y="990" width="80" height="80" as="geometry"/>
                </mxCell>
                <mxCell id="UchIWn36UsaO8wJyYPSa-30" value="" style="endArrow=classic;html=1;rounded=0;edgeStyle=orthogonalEdgeStyle;fontColor=#000000;labelBackgroundColor=#FFFFFF;strokeColor=#000000;" parent="1" source="UchIWn36UsaO8wJyYPSa-24" target="UchIWn36UsaO8wJyYPSa-29" edge="1">
                    <mxGeometry width="50" height="50" relative="1" as="geometry">
                        <mxPoint x="690" y="1020" as="sourcePoint"/>
                        <mxPoint x="610" y="1120" as="targetPoint"/>
                        <Array as="points">
                            <mxPoint x="470" y="1010"/>
                            <mxPoint x="470" y="1010"/>
                        </Array>
                    </mxGeometry>
                </mxCell>
                <mxCell id="UchIWn36UsaO8wJyYPSa-31" value="no" style="edgeLabel;html=1;align=center;verticalAlign=middle;resizable=0;points=[];fontColor=#000000;labelBackgroundColor=#FFFFFF;" parent="UchIWn36UsaO8wJyYPSa-30" vertex="1" connectable="0">
                    <mxGeometry x="-0.0762" y="1" relative="1" as="geometry">
                        <mxPoint x="-1" y="3" as="offset"/>
                    </mxGeometry>
                </mxCell>
                <mxCell id="UchIWn36UsaO8wJyYPSa-32" value="" style="endArrow=classic;html=1;rounded=0;edgeStyle=orthogonalEdgeStyle;fontColor=#000000;labelBackgroundColor=#FFFFFF;strokeColor=#000000;" parent="1" source="UchIWn36UsaO8wJyYPSa-29" target="UchIWn36UsaO8wJyYPSa-21" edge="1">
                    <mxGeometry width="50" height="50" relative="1" as="geometry">
                        <mxPoint x="400" y="1100" as="sourcePoint"/>
                        <mxPoint x="400" y="1180" as="targetPoint"/>
                        <Array as="points">
                            <mxPoint x="690" y="1030"/>
                        </Array>
                    </mxGeometry>
                </mxCell>
                <mxCell id="UchIWn36UsaO8wJyYPSa-33" value="no" style="edgeLabel;html=1;align=center;verticalAlign=middle;resizable=0;points=[];fontColor=#000000;labelBackgroundColor=#FFFFFF;" parent="UchIWn36UsaO8wJyYPSa-32" vertex="1" connectable="0">
                    <mxGeometry x="-0.0762" y="1" relative="1" as="geometry">
                        <mxPoint x="-98" y="1" as="offset"/>
                    </mxGeometry>
                </mxCell>
                <mxCell id="UchIWn36UsaO8wJyYPSa-37" value="Graph pattern inserted in a SERVICE clause" style="rounded=0;whiteSpace=wrap;html=1;strokeWidth=1;fontColor=#000000;labelBackgroundColor=#FFFFFF;strokeColor=#000000;fillColor=#FFFFFF;" parent="1" vertex="1">
                    <mxGeometry x="200" y="850" width="100" height="40" as="geometry"/>
                </mxCell>
                <mxCell id="UchIWn36UsaO8wJyYPSa-38" value="" style="endArrow=classic;html=1;rounded=0;edgeStyle=orthogonalEdgeStyle;fontColor=#000000;labelBackgroundColor=#FFFFFF;strokeColor=#000000;" parent="1" source="UchIWn36UsaO8wJyYPSa-37" target="2" edge="1">
                    <mxGeometry width="50" height="50" relative="1" as="geometry">
                        <mxPoint x="210" y="610" as="sourcePoint"/>
                        <mxPoint x="310" y="760" as="targetPoint"/>
                        <Array as="points">
                            <mxPoint x="250" y="750"/>
                            <mxPoint x="250" y="750"/>
                        </Array>
                    </mxGeometry>
                </mxCell>
                <mxCell id="2" value="Send to corese server and insert the results in an INSERT DATA query" style="rounded=0;whiteSpace=wrap;html=1;strokeWidth=1;fontColor=#000000;labelBackgroundColor=#FFFFFF;strokeColor=#000000;fillColor=#FFFFFF;" vertex="1" parent="1">
                    <mxGeometry x="200" y="600" width="100" height="80" as="geometry"/>
                </mxCell>
                <mxCell id="3" value="" style="endArrow=classic;html=1;rounded=0;edgeStyle=orthogonalEdgeStyle;fontColor=#000000;labelBackgroundColor=#FFFFFF;strokeColor=#000000;" edge="1" parent="1" source="2" target="UchIWn36UsaO8wJyYPSa-15">
                    <mxGeometry width="50" height="50" relative="1" as="geometry">
                        <mxPoint x="260" y="860" as="sourcePoint"/>
                        <mxPoint x="260" y="690" as="targetPoint"/>
                        <Array as="points"/>
                    </mxGeometry>
                </mxCell>
            </root>
        </mxGraphModel>
    </diagram>
</mxfile>